:SAMPLES-PER-SECOND 30
:FULLY-SPECIFIED
:DEGREES
734
root  -61.2286 34.6648 37.3631 -145.071 83.0966 -158.461
RightUpLeg  -15.2755 -12.8098 -1.23284
RightLeg  10.1463 7.33621 0.830576
RightFoot  4.84363 -0.010801 0.744758
RightToes  -31.185 -0.152166 -0.260117
Spine  -0.505737 2.51974 0.991252
Spine1  -0.916328 5.18131 2.6387
HEad  -70.4674 8.61 -1.49559
LeftShoulder1  -1.94126e-019 -3.10601e-018 -2.51263e-017
LeftArm  -14.4283 21.0108 -82.0697
LeftForeArm  29.4474 -45.0641 -9.17773
LeftHand  -0.514799 -1.49714 8.84437
RightShoulder  -4.96962e-017 0 -2.36833e-017
RightArm  -12.5644 -8.85357 77.5065
RightForeArm  58.7786 13.0736 1.35578
RightHand  -0.373023 0.0404168 -8.02092
LeftUpLeg  -27.3414 -9.75908 5.48628
LeftLeg  26.5311 -0.813144 -0.346585
LeftFoot  -1.32691 0.000282915 0.185912
LeftToes  -19.2158 1.87998e-006 4.79886e-008
735
root  -61.1318 34.6875 38.0807 -150.864 80.7202 -163.936
RightUpLeg  -14.6446 -14.4774 0.0925748
RightLeg  10.4053 6.75897 0.796404
RightFoot  3.96768 -0.00363799 0.59558
RightToes  -30.6118 -0.148157 -0.256196
Spine  -0.258412 2.79455 0.846034
Spine1  -0.430962 5.70274 2.38129
HEad  -70.8181 7.71376 -1.08005
LeftShoulder1  -1.94126e-019 -3.10601e-018 -2.51263e-017
LeftArm  -14.9495 22.1854 -83.1567
LeftForeArm  28.4944 -44.5778 -9.06404
LeftHand  -0.533344 -1.36553 9.32498
RightShoulder  -4.96962e-017 0 -2.36833e-017
RightArm  -7.33365 -6.25677 78.0021
RightForeArm  63.1032 13.6813 1.43912
RightHand  -0.428384 1.45765 -7.41143
LeftUpLeg  -27.4623 -5.5708 4.87961
LeftLeg  26.4424 5.05971 2.11516
LeftFoot  -1.01682 -0.0008192 0.0691755
LeftToes  -19.3809 1.87998e-006 4.79886e-008
736
root  -60.9824 34.7356 38.6431 -155.189 77.5245 -167.952
RightUpLeg  -13.0744 -15.0496 1.11263
RightLeg  9.24208 3.81537 0.372287
RightFoot  3.36369 0.00407481 0.365052
RightToes  -28.0795 -0.130922 -0.238399
Spine  -0.236953 2.65038 0.812392
Spine1  -0.404012 5.39859 2.33223
HEad  -69.8869 8.55993 -0.663947
LeftShoulder1  -1.94126e-019 -3.10601e-018 -2.51263e-017
LeftArm  -14.9361 23.1733 -84.1069
LeftForeArm  28.0745 -41.3495 -8.00868
LeftHand  -0.53602 -1.59539 9.07995
RightShoulder  -4.96962e-017 0 -2.36833e-017
RightArm  -3.40102 -4.48109 78.1728
RightForeArm  62.7092 15.4718 1.48569
RightHand  -0.361236 0.592147 -7.10076
LeftUpLeg  -27.293 -3.19649 4.70297
LeftLeg  27.0098 10.2574 4.3873
LeftFoot  -3.04659 -0.0158534 -0.434617
LeftToes  -4.66731 1.87998e-006 4.79886e-008
737
root  -60.7786 34.7727 39.1148 -157.451 74.2163 -169.968
RightUpLeg  -11.358 -15.8019 2.19813
RightLeg  7.55431 1.39248 0.0953343
RightFoot  3.24022 0.00806055 0.230753
RightToes  -26.3925 -0.119885 -0.226128
Spine  -0.356084 2.40219 0.82361
Spine1  -0.652724 4.88615 2.36952
HEad  -68.4009 10.6641 0.171759
LeftShoulder1  -1.94126e-019 -3.10601e-018 -2.51263e-017
LeftArm  -15.423 23.9031 -84.8662
LeftForeArm  28.5731 -36.1305 -6.45527
LeftHand  -0.52316 -2.27747 8.12571
RightShoulder  -4.96962e-017 0 -2.36833e-017
RightArm  -1.79534 -3.87177 77.5724
RightForeArm  62.8619 18.2316 1.61852
RightHand  -0.529522 1.06399 -9.64697
LeftUpLeg  -26.9039 -1.65509 4.80844
LeftLeg  28.0184 14.7479 6.56388
LeftFoot  -4.78241 -0.0575392 -1.21628
LeftToes  -2.64478 1.87998e-006 4.79886e-008
